<svg width="17" height="19" viewBox="0 0 17 19" fill="none" xmlns="http://www.w3.org/2000/svg">
<path d="M9.81754 1.10033C9.81754 1.10033 8.74605 0.405437 8.20293 0.513185C7.78589 0.596418 7.42658 0.835253 7.19098 1.1858C6.95523 1.53664 6.87162 1.95721 6.95538 2.37058C6.98572 2.51987 7.03736 2.66227 7.10766 2.79453C4.87761 3.4256 3.30064 5.46444 3.30064 7.79745C3.30064 7.95306 3.42791 8.0793 3.58478 8.0793C3.74179 8.0793 3.86892 7.95306 3.86892 7.79745C3.86892 5.58819 5.45492 3.67442 7.63983 3.24651L7.64072 3.24636C7.94025 3.18794 8.24747 3.15843 8.55381 3.15843C8.59702 3.15843 8.59049 3.13391 8.59049 3.13391L9.45085 1.54562L13.2386 8.31094V9.67379C13.2386 10.7737 13.728 11.8088 14.5813 12.5135L14.9231 12.7958C15.2672 13.0799 15.4646 13.4972 15.4646 13.9405V13.9582C15.4646 14.7693 14.7981 15.4292 13.9788 15.4292H3.05409C2.23482 15.4292 1.56828 14.7693 1.56828 13.9582C1.56828 13.7366 1.61919 13.5144 1.71538 13.3155C1.81187 13.1158 1.95468 12.937 2.12857 12.7982L2.4793 12.5177C3.3625 11.8124 3.86892 10.7633 3.86892 9.63959V9.02172C3.86892 8.86612 3.74179 8.73988 3.58478 8.73988C3.42791 8.73988 3.30064 8.86612 3.30064 9.02172V9.63959C3.30064 10.5918 2.87147 11.4808 2.12279 12.0787L1.77206 12.3593C1.53276 12.5502 1.33579 12.7967 1.20304 13.0717C1.07015 13.3462 1 13.6528 1 13.9582C1 15.0801 1.92153 15.9929 3.05424 15.9929H6.02867C6.02778 16.0208 6.02689 16.0485 6.02689 16.0763C6.02689 17.436 7.14377 18.5423 8.51652 18.5423C9.88926 18.5423 11.006 17.436 11.006 16.0763C11.006 16.0485 11.0052 16.0208 11.0042 15.9929H13.9789C15.1115 15.9929 16.033 15.0801 16.033 13.9582V13.9405C16.033 13.3291 15.761 12.7541 15.2869 12.3626L14.945 12.0803C14.2218 11.483 13.807 10.6059 13.807 9.67379V8.26969L13.2386 8.31094L9.45085 1.54562L9.81754 1.10033ZM10.4377 16.0763C10.4377 17.1251 9.57582 17.9784 8.51652 17.9784C7.45706 17.9784 6.59517 17.1251 6.59517 16.0763C6.59517 16.0485 6.59591 16.0206 6.5971 15.9929H10.4358C10.4371 16.0206 10.4377 16.0485 10.4377 16.0763ZM8.55381 2.59474C8.26627 2.59474 7.97828 2.61837 7.69488 2.66432C7.60505 2.54527 7.5426 2.40743 7.51256 2.25931C7.45869 1.99391 7.51256 1.7238 7.6638 1.49847C7.81534 1.273 8.0465 1.1193 8.31466 1.06587C8.69928 0.989388 9.2154 1.24821 9.45085 1.54562L8.86394 2.61377C8.86394 2.61377 8.63683 2.59474 8.55381 2.59474Z" fill="white"/>
<path d="M9.45085 1.54562L8.59049 3.13391C8.59049 3.13391 8.59702 3.15843 8.55381 3.15843C8.24747 3.15843 7.94025 3.18794 7.64072 3.24636L7.63983 3.24651C5.45492 3.67442 3.86892 5.58819 3.86892 7.79745C3.86892 7.95306 3.74179 8.0793 3.58478 8.0793C3.42791 8.0793 3.30064 7.95306 3.30064 7.79745C3.30064 5.46444 4.87761 3.4256 7.10766 2.79453C7.03736 2.66227 6.98572 2.51987 6.95538 2.37058C6.87162 1.95721 6.95523 1.53664 7.19098 1.1858C7.42658 0.835253 7.78589 0.596418 8.20293 0.513185C8.74605 0.405437 9.81754 1.10033 9.81754 1.10033L9.45085 1.54562ZM9.45085 1.54562L13.2386 8.31094M9.45085 1.54562C9.2154 1.24821 8.69928 0.989388 8.31466 1.06587C8.0465 1.1193 7.81534 1.273 7.6638 1.49847C7.51256 1.7238 7.45869 1.99391 7.51256 2.25931C7.5426 2.40743 7.60505 2.54527 7.69488 2.66432C7.97828 2.61837 8.26627 2.59474 8.55381 2.59474C8.63683 2.59474 8.86394 2.61377 8.86394 2.61377L9.45085 1.54562ZM13.2386 8.31094V9.67379C13.2386 10.7737 13.728 11.8088 14.5813 12.5135L14.9231 12.7958C15.2672 13.0799 15.4646 13.4972 15.4646 13.9405V13.9582C15.4646 14.7693 14.7981 15.4292 13.9788 15.4292H3.05409C2.23482 15.4292 1.56828 14.7693 1.56828 13.9582C1.56828 13.7366 1.61919 13.5144 1.71538 13.3155C1.81187 13.1158 1.95468 12.937 2.12857 12.7982L2.4793 12.5177C3.3625 11.8124 3.86892 10.7633 3.86892 9.63959V9.02172C3.86892 8.86612 3.74179 8.73988 3.58478 8.73988C3.42791 8.73988 3.30064 8.86612 3.30064 9.02172V9.63959C3.30064 10.5918 2.87147 11.4808 2.12279 12.0787L1.77206 12.3593C1.53276 12.5502 1.33579 12.7967 1.20304 13.0717C1.07015 13.3462 1 13.6528 1 13.9582C1 15.0801 1.92153 15.9929 3.05424 15.9929H6.02867C6.02778 16.0208 6.02689 16.0485 6.02689 16.0763C6.02689 17.436 7.14377 18.5423 8.51652 18.5423C9.88926 18.5423 11.006 17.436 11.006 16.0763C11.006 16.0485 11.0052 16.0208 11.0042 15.9929H13.9789C15.1115 15.9929 16.033 15.0801 16.033 13.9582V13.9405C16.033 13.3291 15.761 12.7541 15.2869 12.3626L14.945 12.0803C14.2218 11.483 13.807 10.6059 13.807 9.67379V8.26969L13.2386 8.31094ZM10.4377 16.0763C10.4377 17.1251 9.57582 17.9784 8.51652 17.9784C7.45706 17.9784 6.59517 17.1251 6.59517 16.0763C6.59517 16.0485 6.59591 16.0206 6.5971 15.9929H10.4358C10.4371 16.0206 10.4377 16.0485 10.4377 16.0763Z" stroke="white" stroke-width="0.2"/>
</svg>
